HIERARCHY
ROOT Hips
{
   OFFSET 0.00000 0.00000 0.00000
   CHANNELS 6 Xposition Yposition Zposition Zrotation Xrotation Yrotation
   JOINT Spine
   {
      OFFSET 0.000000 13.079551 0.000000
      CHANNELS 3 Zrotation Xrotation Yrotation
      JOINT Spine1
      {
         OFFSET -0.000000 28.223142 0.140426
         CHANNELS 3 Zrotation Xrotation Yrotation
         JOINT HEad
         {
            OFFSET 0.000000 9.607577 0.012474
            CHANNELS 3 Zrotation Xrotation Yrotation
            End Site
            {
               OFFSET -0.319000 14.051621 2.765345
            }
         }
         JOINT LeftShoulder1
         {
            OFFSET 9.889000 -0.398475 -0.242000
            CHANNELS 3 Zrotation Xrotation Yrotation
            JOINT LeftArm
            {
               OFFSET 11.310971 -0.003718 0.354332
               CHANNELS 3 Zrotation Xrotation Yrotation
               JOINT LeftForeArm
               {
                  OFFSET 36.043591 0.109054 -1.566774
                  CHANNELS 3 Zrotation Xrotation Yrotation
                  JOINT LeftHand
                  {
                     OFFSET 30.320732 0.093896 1.124376
                     CHANNELS 3 Zrotation Xrotation Yrotation
                     End Site
                     {
                        OFFSET 18.418731 -0.660000 1.653201
                     }
                  }
               }
            }
         }
         JOINT RightShoulder
         {
            OFFSET -9.889000 -0.398475 -0.242000
            CHANNELS 3 Zrotation Xrotation Yrotation
            JOINT RightArm
            {
               OFFSET -11.310971 -0.003718 0.354332
               CHANNELS 3 Zrotation Xrotation Yrotation
               JOINT RightForeArm
               {
                  OFFSET -36.186809 0.109054 -1.566774
                  CHANNELS 3 Zrotation Xrotation Yrotation
                  JOINT RightHand
                  {
                     OFFSET -30.241313 0.093896 1.124376
                     CHANNELS 3 Zrotation Xrotation Yrotation
                     End Site
                     {
                        OFFSET -18.294322 -0.660000 1.653201
                     }
                  }
               }
            }
         }
      }
   }
   JOINT LeftUpLeg
   {
      OFFSET 9.840380 -9.533777 0.111815
      CHANNELS 3 Zrotation Xrotation Yrotation
      JOINT LeftLeg
      {
         OFFSET 0.000000 -48.864969 1.509970
         CHANNELS 3 Zrotation Xrotation Yrotation
         JOINT LeftFoot
         {
            OFFSET -0.278905 -46.301641 -1.606649
            CHANNELS 3 Zrotation Xrotation Yrotation
            JOINT LeftToes
            {
               OFFSET -0.044000 -4.856599 9.349010
               CHANNELS 3 Zrotation Xrotation Yrotation
               End Site
               {
                  OFFSET 0.088000 -0.052195 10.757769
               }
            }
         }
      }
   }
   JOINT RightUpLeg
   {
      OFFSET -9.840380 -9.533777 0.111815
      CHANNELS 3 Zrotation Xrotation Yrotation
      JOINT RightLeg
      {
         OFFSET 0.000000 -48.864969 1.509970
         CHANNELS 3 Zrotation Xrotation Yrotation
         JOINT RightFoot
         {
            OFFSET 0.278905 -46.301641 -1.606649
            CHANNELS 3 Zrotation Xrotation Yrotation
            JOINT RightToes
            {
               OFFSET 0.044000 -4.856599 9.349010
               CHANNELS 3 Zrotation Xrotation Yrotation
               End Site
               {
                  OFFSET -0.088000 -0.151195 10.757769
               }
            }
         }
      }
   }
}
MOTION
Frames: 9
Frame Time: 0.016670
45.381569 75.232691 -125.094097 1.574136 -12.862952 -23.264500 -25.008652 57.377585 17.005866 -1.525992 -0.748043 -0.319953 -14.009608 -5.257788 26.181816 -9.707598 17.958353 5.840455 -98.223509 -38.921734 -76.262682 -40.403854 50.776357 -95.724937 6.677233 -4.703194 2.703752 -4.602726 60.883084 12.211707 100.134760 -14.758318 139.763415 33.460380 58.091660 100.332774 -5.593431 6.545514 -30.666125 12.250516 -39.510226 17.545615 60.946830 51.163810 -44.387463 -22.360101 -22.158542 -5.710325 -12.633326 12.573639 -7.292978 -23.590944 -39.494333 -11.121848 -82.484363 71.319592 89.363347 38.549567 -9.146064 15.313462 -25.142910 -28.545635 -2.287754
45.646290 72.435311 -125.962208 1.619774 -13.389934 -23.482674 -32.634845 61.075934 21.926799 -1.819812 -0.212997 -1.073313 -12.701107 -8.814983 25.282760 -7.628868 13.911328 6.284256 -94.140224 -41.241662 -73.174972 -53.072151 51.405243 -91.307260 13.400490 14.586842 1.365479 -1.058946 56.031102 9.841403 96.241791 -21.998795 129.445663 33.265388 52.183882 100.721999 -5.885969 3.317765 -11.430627 12.680880 -40.957684 18.131772 62.832836 52.039741 -45.413351 -19.008626 -21.707180 -5.153889 -18.379715 -3.849011 -2.327161 -24.155014 -42.170677 -10.321214 -93.667848 72.725293 100.332460 42.207745 -9.196624 15.376668 -29.694213 -30.234939 -2.318206
45.905623 69.888705 -126.984413 1.713656 -12.605734 -22.866814 -39.633808 63.634079 27.152959 -1.813477 0.293590 -1.235972 -11.372098 -12.386095 24.411875 -4.576182 10.221797 6.986738 -90.893972 -42.112535 -69.911822 -59.481713 51.600491 -89.883712 9.118528 8.685640 3.823157 2.549978 50.966646 8.750448 92.635492 -25.910189 122.286532 33.196792 48.985208 102.486087 -4.727818 8.208690 -12.203956 13.359026 -43.824628 18.354463 64.991429 52.825848 -46.625579 -15.706204 -21.587738 -4.312825 -21.135561 2.788725 -4.427377 -24.886044 -45.780012 -10.149609 -107.262056 73.745470 113.622874 46.128987 -9.437511 15.459040 -34.676276 -32.383020 -2.061943
46.167797 66.979689 -128.159073 2.044309 -10.609396 -20.613677 -44.322819 65.680731 29.854207 -1.876828 1.090866 -1.350421 -10.002120 -15.623288 23.574557 -1.007929 6.762498 7.567924 -88.036555 -41.952128 -67.039003 -62.669861 52.305261 -90.621147 12.334286 18.349161 2.736133 6.193014 46.170682 8.391886 89.784852 -28.321000 117.580887 32.543659 47.784338 104.687634 -4.734313 5.331290 -3.629325 13.014809 -48.485884 16.705219 67.256880 53.110974 -48.599525 -12.471499 -21.408635 -3.495816 -26.737006 -0.333748 -3.516835 -27.396630 -50.451985 -11.518754 -124.167156 73.932488 131.098159 50.231540 -9.229433 15.270104 -39.814897 -34.352515 -2.168753
46.313471 64.183005 -129.340408 2.295533 -8.877248 -18.589439 -50.807527 67.049337 34.909093 -1.477146 1.587410 -1.340831 -7.881363 -19.068645 22.634376 2.940857 3.714624 8.056945 -86.174598 -41.212668 -64.126843 -63.474574 52.503094 -92.256390 9.741600 13.851490 4.034897 10.008240 41.899222 8.069177 87.401928 -29.754647 114.469135 31.409062 47.598075 106.749491 -4.645948 8.391211 -5.781972 12.589313 -53.284580 15.038108 70.488263 53.101640 -51.991881 -9.785956 -21.195387 -2.716050 -30.459533 0.850940 -4.214899 -30.366543 -54.968553 -11.286472 -144.479552 73.578445 152.580265 54.505965 -8.724411 14.589501 -44.542549 -35.842435 -2.418542
46.350850 61.461224 -130.437601 2.394659 -7.266654 -16.711227 -55.720618 67.481873 38.967804 -0.351665 1.879186 -1.279790 -6.200251 -21.734838 21.926388 6.397831 1.995339 8.409314 -84.952950 -40.085766 -61.309294 -63.231467 52.879096 -94.733829 11.107937 18.850897 3.645018 12.528395 39.012961 8.046023 85.798364 -30.656204 112.421403 30.165561 48.047628 108.780434 -4.662419 6.499562 -2.351685 12.232225 -58.325847 13.419415 74.182446 53.102149 -56.427068 -7.309694 -20.768450 -1.975857 -34.098794 0.079296 -3.540122 -33.376361 -58.822320 -9.260843 -165.908355 72.445194 175.548115 59.016154 -8.148842 13.799566 -48.971203 -37.325737 -2.630478
46.308622 58.534869 -131.377991 2.624382 -5.905593 -14.889669 -59.006476 67.635053 41.688510 0.168779 1.986233 -1.257116 -4.805183 -23.762884 21.202357 8.880364 0.670749 8.771792 -83.612669 -38.498156 -58.890608 -62.108727 52.596548 -97.392200 9.621663 15.624468 4.555872 13.868009 37.416063 7.909948 82.733187 -28.659477 111.820524 29.767102 49.788947 109.691786 -7.170835 11.534665 -6.462993 14.237195 -63.990068 13.969097 78.068639 55.633376 -62.823028 -3.253887 -20.181124 -1.154035 -37.506222 -1.019028 -3.842958 -36.229898 -61.904675 -5.467167 -184.967096 69.785231 196.419507 63.877609 -7.557662 13.177019 -53.661576 -38.917615 -4.081680
46.197399 55.707339 -132.147234 3.052800 -5.057114 -13.119053 -60.719671 67.766084 43.086421 0.076150 2.299956 -1.251728 -3.768181 -24.951091 20.411600 10.632094 -0.230174 9.036309 -82.228108 -36.944070 -57.104951 -60.537326 52.000713 -100.134924 9.670902 18.440140 4.794139 14.556911 36.813446 7.539757 78.578007 -24.740561 112.774087 27.629372 47.830961 109.700262 -8.518062 12.419182 -6.092447 19.879409 -69.679746 18.040254 83.223205 59.855844 -71.678006 1.998476 -19.280958 -0.380818 -40.598774 -3.229885 -4.064261 -39.282382 -64.212521 -2.101392 -195.574161 66.026346 209.279810 69.034812 -6.822643 12.525699 -58.534223 -41.059324 -5.427663
46.107177 52.942189 -132.670525 3.486465 -4.214081 -11.160027 -61.231512 67.635969 43.318993 -0.359544 1.717303 -1.240459 -4.253419 -25.863949 19.134239 11.632546 -0.765124 8.843553 -80.667150 -35.400553 -55.460897 -54.647592 46.958503 -105.847121 3.694060 13.611633 5.219442 7.424497 34.880492 18.277684 82.140524 -29.861867 110.753956 26.014087 46.618999 111.456489 -8.077916 14.259023 -7.996835 28.342022 -74.882683 24.838468 90.939010 64.476467 -82.888293 8.012509 -18.676003 0.399344 -43.624790 -5.336345 -4.667410 -42.389780 -66.062928 0.399509 -199.633520 62.503136 215.967453 74.469402 -5.902719 11.808093 -63.824293 -43.613319 -7.463308
